<svg id="visual" viewBox="0 0 900 600" width="900" height="600" xmlns="http://www.w3.org/2000/svg" xmlns:xlink="http://www.w3.org/1999/xlink" version="1.1"><rect x="0" y="0" width="900" height="600" fill="#001220"></rect><path d="M0 432L25 418.8C50 405.7 100 379.3 150 381.2C200 383 250 413 300 413.3C350 413.7 400 384.3 450 379.7C500 375 550 395 600 418.8C650 442.7 700 470.3 750 483.3C800 496.3 850 494.7 875 493.8L900 493L900 0L875 0C850 0 800 0 750 0C700 0 650 0 600 0C550 0 500 0 450 0C400 0 350 0 300 0C250 0 200 0 150 0C100 0 50 0 25 0L0 0Z" fill="#fa7268"></path><path d="M0 360L25 344.3C50 328.7 100 297.3 150 299.8C200 302.3 250 338.7 300 336.3C350 334 400 293 450 292.7C500 292.3 550 332.7 600 345C650 357.3 700 341.7 750 322.8C800 304 850 282 875 271L900 260L900 0L875 0C850 0 800 0 750 0C700 0 650 0 600 0C550 0 500 0 450 0C400 0 350 0 300 0C250 0 200 0 150 0C100 0 50 0 25 0L0 0Z" fill="#eb5967"></path><path d="M0 169L25 166.3C50 163.7 100 158.3 150 159.7C200 161 250 169 300 175.2C350 181.3 400 185.7 450 203.8C500 222 550 254 600 252.3C650 250.7 700 215.3 750 206.2C800 197 850 214 875 222.5L900 231L900 0L875 0C850 0 800 0 750 0C700 0 650 0 600 0C550 0 500 0 450 0C400 0 350 0 300 0C250 0 200 0 150 0C100 0 50 0 25 0L0 0Z" fill="#da3f67"></path><path d="M0 124L25 130.2C50 136.3 100 148.7 150 156.2C200 163.7 250 166.3 300 166.8C350 167.3 400 165.7 450 161.5C500 157.3 550 150.7 600 150.5C650 150.3 700 156.7 750 155.2C800 153.7 850 144.3 875 139.7L900 135L900 0L875 0C850 0 800 0 750 0C700 0 650 0 600 0C550 0 500 0 450 0C400 0 350 0 300 0C250 0 200 0 150 0C100 0 50 0 25 0L0 0Z" fill="#c62368"></path></svg>